<?xml version="1.0" encoding="UTF-8"?>
<svg xmlns="http://www.w3.org/2000/svg" xmlns:xlink="http://www.w3.org/1999/xlink" width="512pt" height="512pt" viewBox="0 0 512 512" version="1.1">
<g id="surface1">
<path style=" stroke:none;fill-rule:nonzero;fill:#0D0C0C;fill-opacity:1;" d="M 200 32 C 184.25 33.125 169.625 34.5 155 39 C 147.25 41.9375 137.4375 47 128.5 47 C 127.0625 47 125.9375 46.8125 124.5 46.5 C 121.125 45.375 118.875 43 115.5 43 C 112.125 43 108.625 44.25 107.5 46.5 C 106.375 48.75 107.5 49.75 107.5 52 C 106.375 61 92.75 63.625 90.5 71.5 C 89.375 76 90.625 81.5 89.5 86 C 87.25 93.875 79.625 97.125 74 100.5 C 63.875 107.25 56.125 115.25 50.5 126.5 C 49.375 128.75 48 130.75 48 133 C 48 137.5 54.75 142.125 57 145.5 C 61.5 151.125 60.25 159.25 58 166 C 55.75 172.75 51.25 178.375 49 184 C 47.875 186.25 48 188.375 48 189.5 L 51.5 193 C 61.625 200.875 70.625 208.5 78.5 217.5 C 83 223.125 86.375 224.125 92 227.5 C 96.875 230.4375 102.375 233.5 107.5 233.5 C 108.3125 233.5 109.25 233.6875 110 233.5 C 115.625 232.375 120.875 227.5 126.5 227.5 C 129.875 227.5 134.625 230 138 230 C 138.75 230.125 139.25 230 140 230 C 146 230 152 226.5 157 224.5 C 158.5 223.875 160.1875 223.5 162 223.5 C 167 223.5 172.75 225.6875 176 229 C 179.375 231.25 180.625 235.75 184 238 C 186.0625 239.5 188.1875 240 190.5 240 C 193.25 240 196.0625 239.25 198.5 238 C 203 241.375 207.5 250 207.5 254.5 C 207.5 259 205.375 262.625 206.5 266 C 207.625 278.375 208.625 284.875 216.5 295 C 224.375 305.125 229 315.5 229 329 C 227.875 342.5 218 353.5 218 367 C 218 381.625 234.625 393 238 406.5 C 239.125 411 239.375 416.5 240.5 421 C 242.75 431.125 246.875 440 252.5 449 C 254.75 452.375 258.375 455 259.5 459.5 L 259.5 466 C 259.5 471.625 263.875 477.25 269.5 479.5 C 270.4375 479.8125 271.375 480 272.5 480 C 275.3125 480 278.8125 479.3125 282 478.5 C 294.375 477.375 316.625 472.75 324.5 461.5 C 329.4375 454.5 332.375 445.625 338 440 C 341.375 436.625 344.625 433.5 343.5 429 C 342.375 426.75 341.5 425.625 341.5 424.5 C 341.5 422.25 345.75 421 348 421 L 355 421 C 360.625 419.875 362.625 413 361.5 408.5 C 360.375 402.875 354.75 399.625 352.5 394 C 351.375 392.875 351.5 391.625 351.5 390.5 C 351.5 386 359.375 378.375 365 375 C 371.75 371.625 379.625 368.25 383 361.5 C 385.25 355.875 385.25 350.125 383 344.5 C 380.75 333.25 376.125 323.25 375 312 C 372.75 300.75 379.875 289.625 385.5 279.5 C 390 272.75 396.75 267 403.5 262.5 C 426 245.625 448.125 217.625 451.5 189.5 C 443.625 196.25 430.25 200.875 419 202 C 415.625 202 412.25 201.625 410 200.5 C 407.75 199.375 405.625 197.25 404.5 195 C 397.75 187.125 394.375 175.75 386.5 169 C 382 165.625 377.375 163.5 374 159 C 369.5 154.5 367.25 147.75 365 141 C 358.25 121.875 358.375 106.125 350.5 87 C 348.25 82.5 346 77 341.5 77 L 333.5 77 C 332.0625 77.1875 330.875 77.5 329.5 77.5 C 315.3125 77.5 301.8125 67.5625 287.5 64.5 C 286.125 64.0625 284.5625 64 283 64 C 280.8125 64 278.8125 64.1875 277.5 65.5 C 274.125 68.875 275.375 74.625 272 78 C 270.6875 79.3125 268.1875 80 266 80 C 264.4375 80 262.875 79.4375 261.5 79 C 258.125 77.875 255.875 75.75 252.5 73.5 C 241.25 65.625 218.75 62.375 207.5 54.5 C 209.75 51.125 210.875 47.875 212 44.5 C 213.125 41.125 210.875 35.25 207.5 33 C 205.25 31.875 202.25 32 200 32 Z M 170.5 67.5 L 189.5 80.5 C 198.9375 87.125 210.0625 91.1875 220 94.5 C 224.8125 96.125 232.25 98.1875 235 100 C 235.5625 100.375 236.0625 101.1875 236.5 101.5 C 239.5 103.6875 244.3125 107.125 251.5 109.5 C 256.1875 111.0625 261.0625 112 266 112 C 276.875 112 287.25 108.1875 294.5 101 C 302.8125 104.4375 312.375 108.0625 324 109 C 325.1875 113.375 326.5 118.125 327.5 123 C 329.25 131.5 330.875 140.75 334.5 151 C 337.25 159.25 341.3125 170.5 350 180 C 355.25 186.4375 361.125 190.3125 365 193 C 365.3125 193.1875 365.1875 193.3125 365.5 193.5 C 366.4375 194.8125 367.9375 197.625 369 199.5 C 371.3125 203.5625 374.1875 208.5625 378 213.5 C 382 219.6875 387.625 224.9375 394 228.5 C 391 231.3125 387.75 234 384.5 236.5 C 373.125 244.1875 364.6875 252.25 358.5 261.5 L 358 262.5 L 357.5 264 L 356.5 265.5 C 349.875 277.375 339.875 295 343.5 316.5 C 344.5625 325.5 347 333.125 349 340 C 349.625 342.125 350 344.5 350.5 346.5 L 348.5 347.5 C 345.5 349.25 319.5 365.4375 319.5 390.5 C 319.5 393.6875 319.875 396.875 320.5 399.5 C 313.625 405.875 309.5 414.625 309.5 424.5 C 306.1875 429.0625 303.5625 433.625 301.5 437.5 C 300.75 438.9375 300.1875 440.3125 299.5 441.5 C 297.4375 442.5625 293.5 443.9375 288.5 445 C 285.625 438.125 281.1875 433.5 279 431 C 274.875 424.3125 272.75 419 271.5 413.5 C 271.3125 412.4375 271.125 411.125 271 410 C 270.625 406.8125 270.0625 402.8125 269 398.5 C 266 386.375 259.375 377.6875 254 370.5 C 252.875 369 251.5625 367.0625 250.5 365.5 C 251.125 363.75 252.25 361.1875 253 359.5 C 256 352.5 260 343.125 261 331.5 L 261 329 C 261 309.3125 255 292.25 242 275.5 C 239.5625 272.375 239.1875 272.25 238.5 265 C 239 262.4375 239.5 258.5625 239.5 254.5 C 239.5 239.625 230.4375 221.3125 218 212 L 202 200.5 L 196 203.5 C 186.9375 195.9375 174.3125 191.5 162 191.5 C 156 191.5 150.25 192.375 145 194.5 C 143.125 195.25 141.5625 196.0625 139.5 197 C 139.375 197.0625 139.125 197.4375 139 197.5 C 135.9375 196.6875 131.375 195.5 126.5 195.5 C 118.6875 195.5 112.25 198 107.5 200 C 106.375 199.3125 105.5 198.5625 104.5 198 C 104.0625 197.75 103.4375 197.25 103 197 L 102.5 196.5 C 97.875 191.1875 92.375 185.8125 86.5 180.5 C 87.125 179 87.9375 177.625 88.5 176 C 95.375 155.4375 91.125 140.5625 86 131.5 C 87.4375 130.25 89.125 129.25 91 128 L 92 127 C 99.375 122.8125 115 114.3125 120.5 95 L 120.5 94 C 121.25 91.0625 121.8125 88 122 85.5 C 124.125 83.8125 126.6875 81.5625 129 79 C 142.25 79 153.375 74.0625 161.5 70.5 C 162.8125 69.9375 163.75 69.5 165 69 C 166.8125 68.4375 168.6875 67.875 170.5 67.5 Z M 444 320 C 440.8125 326.875 436.8125 335.0625 431.5 338.5 C 427.25 340.8125 421.625 342.9375 419.5 347.5 C 416.3125 353.1875 419.5625 359.8125 418.5 365.5 C 418.5 367.8125 417.5625 370.1875 416.5 372.5 C 415.4375 378.1875 416.375 385.3125 418.5 391 C 419.5625 394.4375 421.8125 398.875 425 400 C 427.125 400 430.375 398.8125 432.5 396.5 C 434.625 394.1875 436.4375 389.9375 437.5 386.5 C 438.5625 383.0625 438.5 379.4375 438.5 376 C 439.5625 365.6875 444.875 355.3125 447 345 C 448.0625 338.125 448.0625 331.375 447 324.5 C 446.1875 322.8125 445.3125 321.75 444.5 321 Z "/>
</g>
</svg>
